{"title":"Couple Enjoying in Different Styles in their Room .mkv","uid":8658212,"size":129498048,"categoryP":"porn","categoryS":"movies","magnet":"?xt=urn:btih:f848ab8247441172dc5c311aa17ea83bab50e621&amp;dn=Couple+Enjoying+in+Different+Styles+in+their+Room+.mkv&amp;tr=udp%3A%2F%2Ftracker.openbittorrent.com%3A80&amp;tr=udp%3A%2F%2Fopen.demonii.com%3A1337&amp;tr=udp%3A%2F%2Ftracker.coppersurfer.tk%3A6969&amp;tr=udp%3A%2F%2Fexodus.desync.com%3A6969","seeders":0,"leechers":0,"uploader":"shilpa143","files":1,"time":1373259522,"description":"[code]General\nUnique ID                                : 242902025169389908953511904735398854543 (0xB6BD3A774842E40892078EC7D80DFF8F)\nComplete name                            : Couple Enjoying in Different Styles in their Room \nFormat                                   : Matroska\nFormat version                           : Version 4 / Version 2\nFile size                                : 123 MiB\nDuration                                 : 40mn 36s\nOverall bit rate                         : 425 Kbps\nMovie name                               : Couple Enjoying in Different Styles in their Room by shilpa143\nEncoded date                             : UTC 1970-01-01 00:00:00\nWriting application                      : mkvmerge v6.1.0 ('Old Devil') built on Mar  2 2013 14:32:37\nWriting library                          : Lavf54.63.104\n\nVideo\nID                                       : 1\nFormat                                   : AVC\nFormat/Info                              : Advanced Video Codec\nFormat profile                           : &lt;a class=&quot;__cf_email__&quot; href=&quot;/cdn-cgi/l/email-protection&quot; data-cfemail=&quot;6c24050b042c205f425d&quot;&gt;[email&amp;#160;protected]&lt;/a&gt;&lt;script cf-hash='f9e31' type=&quot;text/javascript&quot;&gt;\n/* &lt;![CDATA[ */!function(){try{var t=&quot;currentScript&quot;in document?document.currentScript:function(){for(var t=document.getElementsByTagName(&quot;script&quot;),e=t.length;e--;)if(t[e].getAttribute(&quot;cf-hash&quot;))return t[e]}();if(t&amp;&amp;t.previousSibling){var e,r,n,i,c=t.previousSibling,a=c.getAttribute(&quot;data-cfemail&quot;);if(a){for(e=&quot;&quot;,r=parseInt(a.substr(0,2),16),n=2;a.length-n;n+=2)i=parseInt(a.substr(n,2),16)^r,e+=String.fromCharCode(i);e=document.createTextNode(e),c.parentNode.replaceChild(e,c)}}}catch(u){}}();/* ]]&gt; */&lt;/script&gt;\nFormat settings, CABAC                   : Yes\nFormat settings, ReFrames                : 1 frame\nCodec ID                                 : V_MPEG4/ISO/AVC\nDuration                                 : 40mn 36s\nBit rate                                 : 353 Kbps\nNominal bit rate                         : 782 Kbps\nWidth                                    : 720 pixels\nHeight                                   : 576 pixels\nDisplay aspect ratio                     : 16:9\nOriginal display aspect ratio            : 5:4\nFrame rate mode                          : Constant\nFrame rate                               : 25.000 fps\nStandard                                 : PAL\nColor space                              : YUV\nChroma subsampling                       : 4:2:0\nBit depth                                : 8 bits\nScan type                                : Progressive\nBits/(Pixel*Frame)                       : 0.034\nStream size                              : 102 MiB (83%)\nWriting library                          : x264 core 129\nEncoding settings                        : cabac=1 / ref=1 / deblock=1:0:0 / analyse=0x3:0x113 / me=dia / subme=2 / psy=1 / psy_rd=1.00:0.00 / mixed_ref=0 / me_range=16 / chroma_me=0 / trellis=0 / 8x8dct=1 / cqm=0 / deadzone=21,11 / fast_pskip=1 / chroma_qp_offset=0 / threads=2 / lookahead_threads=1 / sliced_threads=0 / nr=0 / decimate=1 / interlaced=0 / bluray_compat=0 / constrained_intra=0 / bframes=0 / weightp=2 / keyint=250 / keyint_min=25 / scenecut=40 / intra_refresh=0 / rc_lookahead=40 / rc=abr / mbtree=1 / bitrate=782 / ratetol=1.0 / qcomp=0.60 / qpmin=10 / qpmax=51 / qpstep=4 / ip_ratio=1.41 / aq=1:1.00\nLanguage                                 : English\nDefault                                  : Yes\nForced                                   : No\n\nAudio\nID                                       : 2\nFormat                                   : MPEG Audio\nFormat version                           : Version 2.5\nFormat profile                           : Layer 3\nMode                                     : Joint stereo\nMode extension                           : MS Stereo\nCodec ID                                 : A_MPEG/L3\nCodec ID/Hint                            : MP3\nDuration                                 : 40mn 36s\nBit rate mode                            : Constant\nBit rate                                 : 64.0 Kbps\nChannel(s)                               : 2 channels\nSampling rate                            : 11.025 KHz\nCompression mode                         : Lossy\nStream size                              : 18.6 MiB (15%)\nTitle                                    : Couple Enjoying in Different Styles in their Room\nWriting library                          : LAME3.99.5\nDefault                                  : Yes\nForced                                   : No\n\n\nSource                                   : DVD[/code]\n[img]http://i.cubeupload.com/eh1EHE.png[/img]\n\n[img]http://s22.postimg.org/v1ze31gep/Couple_Enjoying_in_Different_Styles_in_their_Room.jpg[/img]\n","torrent":{"xt":"urn:btih:f848ab8247441172dc5c311aa17ea83bab50e621","amp;dn":"Couple+Enjoying+in+Different+Styles+in+their+Room+.mkv","amp;tr":["udp%3A%2F%2Ftracker.openbittorrent.com%3A80","udp%3A%2F%2Fopen.demonii.com%3A1337","udp%3A%2F%2Ftracker.coppersurfer.tk%3A6969","udp%3A%2F%2Fexodus.desync.com%3A6969"],"infoHash":"f848ab8247441172dc5c311aa17ea83bab50e621","infoHashBuffer":{"type":"Buffer","data":[248,72,171,130,71,68,17,114,220,92,49,26,161,126,168,59,171,80,230,33]},"announce":[],"urlList":[]}}